<svg width="1500" height="1500" viewBox="0 0 1500 1500" fill="none" xmlns="http://www.w3.org/2000/svg">
<rect width="1500" height="1500" rx="750" fill="white"/>
<path d="M1046.94 578.347L901.981 492.673M1046.94 578.347V749.694M1046.94 578.347L757.023 749.694M1046.94 921.041L901.981 1006.71M1046.94 921.041V749.694M1046.94 921.041L1191.9 1006.71M466.719 921.041L612.065 1006.71M466.719 921.041V749.694M466.719 921.041L321.761 1006.71M466.719 578.347L612.065 492.673M466.719 578.347V749.694M466.719 578.347L757.023 749.694M612.065 492.673L757.023 407L901.981 492.673M612.065 492.673L757.023 578.347M612.065 492.673L321.761 1006.71M612.065 492.673L757.023 749.694M901.981 1006.71L757.023 1092.39L612.065 1006.71M901.981 1006.71L466.719 749.694M901.981 1006.71L757.023 921.041M901.981 1006.71L1191.9 492.674M901.981 1006.71L1046.94 749.694M901.981 1006.71L757.023 749.694M901.981 492.673L757.023 578.347M901.981 492.673L1191.9 1006.71M901.981 492.673L757.023 749.694M612.065 1006.71L1046.94 749.694M612.065 1006.71L757.023 921.041M612.065 1006.71L321.761 492.673M612.065 1006.71L466.719 749.694M612.065 1006.71L757.023 749.694M466.719 749.694L757.023 749.694M466.719 749.694L321.761 492.673M466.719 749.694L321.761 1006.71M466.719 749.694L176.803 921.041L321.761 1006.71M466.719 749.694L176.803 578.347L321.761 492.673M1046.94 749.694L1191.9 492.674M1046.94 749.694L1191.9 1006.71M1046.94 749.694L1336.86 921.041L1191.9 1006.71M1046.94 749.694L1336.86 578.347L1191.9 492.674M1046.94 749.694H757.023M757.023 921.041V749.694M757.023 578.347V749.694M1191.9 1006.71L757.023 749.694M1191.9 492.674L757.023 749.694M757.023 749.694L321.761 1006.71M757.023 749.694L321.761 492.673" stroke="black" stroke-width="9"/>
<path d="M226.895 584.096L454.602 749.694L226.895 915.293L36.8486 749.694L226.895 584.096Z" stroke="black" stroke-width="9"/>
<path d="M1292.79 915.207L1059.29 749.694L1292.79 584.18L1463.54 749.694L1292.79 915.207Z" stroke="black" stroke-width="9"/>
<path d="M467.011 749.009V749.694" stroke="black" stroke-width="9"/>
<path d="M467.011 749.694L756.539 578.347L1045.39 749.009" stroke="black" stroke-width="9"/>
</svg>
