<svg width="454" height="220" viewBox="0 0 454 220" fill="none" xmlns="http://www.w3.org/2000/svg">
<path d="M320.489 56L274.806 29M320.489 56V110M320.489 56L229.122 110M320.489 164L274.806 191M320.489 164V110M320.489 164L366.173 191M137.633 164L183.438 191M137.633 164V110M137.633 164L91.9492 191M137.633 56L183.438 29M137.633 56V110M137.633 56L229.122 110M183.438 29L229.122 2L274.806 29M183.438 29L229.122 56.0001M183.438 29L91.9492 191M183.438 29L229.122 110M274.806 191L229.122 218L183.438 191M274.806 191L137.633 110M274.806 191L229.122 164M274.806 191L366.173 29M274.806 191L320.489 110M274.806 191L229.122 110M274.806 29L229.122 56.0001M274.806 29L366.173 191M274.806 29L229.122 110M183.438 191L320.489 110M183.438 191L229.122 164M183.438 191L91.9492 29M183.438 191L137.633 110M183.438 191L229.122 110M137.633 110L229.122 110M137.633 110L91.9492 29M137.633 110L91.9492 191M137.633 110L46.2656 164L91.9492 191M137.633 110L46.2656 56L91.9492 29M320.489 110L366.173 29M320.489 110L366.173 191M320.489 110L411.856 164L366.173 191M320.489 110L411.856 56.0001L366.173 29M320.489 110H229.122M229.122 164V110M229.122 56.0001V110M366.173 191L229.122 110M366.173 29L229.122 110M229.122 110L91.9492 191M229.122 110L91.9492 29" stroke="black" stroke-width="3"/>
<path d="M62.0566 57.9171L133.675 110L62.0566 162.084L2.28223 110L62.0566 57.9171Z" stroke="black" stroke-width="3"/>
<path d="M397.958 162.056L324.521 110L397.958 57.9435L451.661 110L397.958 162.056Z" stroke="black" stroke-width="3"/>
<path d="M137.725 109.784V110" stroke="black" stroke-width="3"/>
<path d="M137.725 110L228.97 56.0001L320 109.784" stroke="black" stroke-width="3"/>
</svg>
